<svg width="465" height="608" viewBox="0 0 465 608" fill="none" xmlns="http://www.w3.org/2000/svg">
<path d="M25.5 314C25.5 321.491 19.8693 327.5 13 327.5C6.13068 327.5 0.5 321.491 0.5 314C0.5 306.509 6.13068 300.5 13 300.5C19.8693 300.5 25.5 306.509 25.5 314Z" stroke="#D8D0CF" stroke-opacity="0.2"/>
<path d="M84.5 223.5V0.5H89.5V223.5H84.5Z" stroke="#D8D0CF" stroke-opacity="0.2"/>
<path d="M101.5 237.5C101.5 245.816 95.2011 252.5 87.5 252.5C79.7989 252.5 73.5 245.816 73.5 237.5C73.5 229.184 79.7989 222.5 87.5 222.5C95.2011 222.5 101.5 229.184 101.5 237.5Z" stroke="#68150F"/>
<path d="M192.5 223.5V0.5H196.5V223.5H192.5Z" stroke="#D8D0CF" stroke-opacity="0.2"/>
<path d="M208.5 237.5C208.5 245.816 202.201 252.5 194.5 252.5C186.799 252.5 180.5 245.816 180.5 237.5C180.5 229.184 186.799 222.5 194.5 222.5C202.201 222.5 208.5 229.184 208.5 237.5Z" stroke="#D8D0CF" stroke-opacity="0.2"/>
<path d="M380.5 223.5V0.5H383.5V223.5H380.5Z" stroke="#D8D0CF" stroke-opacity="0.2"/>
<path d="M396.5 237.5C396.5 245.816 390.201 252.5 382.5 252.5C374.799 252.5 368.5 245.816 368.5 237.5C368.5 229.184 374.799 222.5 382.5 222.5C390.201 222.5 396.5 229.184 396.5 237.5Z" stroke="#D8D0CF" stroke-opacity="0.2"/>
<path d="M317.5 459.5C317.5 467.833 311.409 474.5 304 474.5C296.591 474.5 290.5 467.833 290.5 459.5C290.5 451.167 296.591 444.5 304 444.5C311.409 444.5 317.5 451.167 317.5 459.5Z" stroke="#D8D0CF" stroke-opacity="0.2"/>
<path d="M300.983 174.959H194.5V170.5H305.5V446.5H301.483V175.459V174.959H300.983Z" stroke="#D8D0CF" stroke-opacity="0.2"/>
<path d="M133.5 557C133.5 565.643 127.603 572.5 120.5 572.5C113.397 572.5 107.5 565.643 107.5 557C107.5 548.357 113.397 541.5 120.5 541.5C127.603 541.5 133.5 548.357 133.5 557Z" stroke="#68150F"/>
<path d="M117.983 272.959H11.5V268.5H122.5V544.5H118.483V273.459V272.959H117.983Z" stroke="#D8D0CF" stroke-opacity="0.2"/>
<path d="M464.5 435.5C464.5 443.833 458.409 450.5 451 450.5C443.591 450.5 437.5 443.833 437.5 435.5C437.5 427.167 443.591 420.5 451 420.5C458.409 420.5 464.5 427.167 464.5 435.5Z" stroke="#68150F"/>
<path d="M448.045 151.94H380.5V147.5H452.5V422.5H448.545V152.44V151.94H448.045Z" stroke="#D8D0CF" stroke-opacity="0.2"/>
<path d="M15.6289 173.378V300.5H11.5V168.5H88.5V172.878H16.1289H15.6289V173.378Z" stroke="#D8D0CF" stroke-opacity="0.2"/>
<path d="M210.5 618C210.5 626.591 203.978 633.5 196 633.5C188.022 633.5 181.5 626.591 181.5 618C181.5 609.409 188.022 602.5 196 602.5C203.978 602.5 210.5 609.409 210.5 618Z" stroke="#D8D0CF" stroke-opacity="0.2"/>
<path d="M192.068 472.918H122.5V468.5H196.5V601.5H192.568V473.418V472.918H192.068Z" stroke="#D8D0CF" stroke-opacity="0.2"/>
<path d="M391.5 504C391.5 512.591 384.978 519.5 377 519.5C369.022 519.5 362.5 512.591 362.5 504C362.5 495.409 369.022 488.5 377 488.5C384.978 488.5 391.5 495.409 391.5 504Z" stroke="#D8D0CF" stroke-opacity="0.2"/>
<path d="M379.497 358.459V487.5H375.5V353.5H450.5V357.959H379.997H379.497V358.459Z" stroke="#D8D0CF" stroke-opacity="0.2"/>
</svg>
