<svg width="454" height="608" viewBox="0 0 454 608" fill="none" xmlns="http://www.w3.org/2000/svg">
<path d="M73.5 223.5V0.5H78.5V223.5H73.5Z" stroke="#D8D0CF" stroke-opacity="0.2"/>
<path d="M90.5 237.5C90.5 245.816 84.2011 252.5 76.5 252.5C68.7989 252.5 62.5 245.816 62.5 237.5C62.5 229.184 68.7989 222.5 76.5 222.5C84.2011 222.5 90.5 229.184 90.5 237.5Z" stroke="#68150F"/>
<path d="M181.5 223.5V0.5H185.5V223.5H181.5Z" stroke="#D8D0CF" stroke-opacity="0.2"/>
<path d="M197.5 237.5C197.5 245.816 191.201 252.5 183.5 252.5C175.799 252.5 169.5 245.816 169.5 237.5C169.5 229.184 175.799 222.5 183.5 222.5C191.201 222.5 197.5 229.184 197.5 237.5Z" stroke="#D8D0CF" stroke-opacity="0.2"/>
<path d="M369.5 223.5V0.5H372.5V223.5H369.5Z" stroke="#D8D0CF" stroke-opacity="0.2"/>
<path d="M385.5 237.5C385.5 245.816 379.201 252.5 371.5 252.5C363.799 252.5 357.5 245.816 357.5 237.5C357.5 229.184 363.799 222.5 371.5 222.5C379.201 222.5 385.5 229.184 385.5 237.5Z" stroke="#D8D0CF" stroke-opacity="0.2"/>
<path d="M306.5 459.5C306.5 467.833 300.409 474.5 293 474.5C285.591 474.5 279.5 467.833 279.5 459.5C279.5 451.167 285.591 444.5 293 444.5C300.409 444.5 306.5 451.167 306.5 459.5Z" stroke="#D8D0CF" stroke-opacity="0.2"/>
<path d="M289.983 174.959H183.5V170.5H294.5V446.5H290.483V175.459V174.959H289.983Z" stroke="#D8D0CF" stroke-opacity="0.2"/>
<path d="M122.5 557C122.5 565.643 116.603 572.5 109.5 572.5C102.397 572.5 96.5 565.643 96.5 557C96.5 548.357 102.397 541.5 109.5 541.5C116.603 541.5 122.5 548.357 122.5 557Z" stroke="#68150F"/>
<path d="M106.983 272.959H0.5V268.5H111.5V544.5H107.483V273.459V272.959H106.983Z" stroke="#D8D0CF" stroke-opacity="0.2"/>
<path d="M453.5 435.5C453.5 443.833 447.409 450.5 440 450.5C432.591 450.5 426.5 443.833 426.5 435.5C426.5 427.167 432.591 420.5 440 420.5C447.409 420.5 453.5 427.167 453.5 435.5Z" stroke="#68150F"/>
<path d="M437.045 151.94H369.5V147.5H441.5V422.5H437.545V152.44V151.94H437.045Z" stroke="#D8D0CF" stroke-opacity="0.2"/>
<path d="M4.62888 173.378V300.5H0.5V168.5H77.5V172.878H5.12888H4.62888V173.378Z" stroke="#D8D0CF" stroke-opacity="0.2"/>
<path d="M199.5 618C199.5 626.591 192.978 633.5 185 633.5C177.022 633.5 170.5 626.591 170.5 618C170.5 609.409 177.022 602.5 185 602.5C192.978 602.5 199.5 609.409 199.5 618Z" stroke="#D8D0CF" stroke-opacity="0.2"/>
<path d="M181.068 472.918H111.5V468.5H185.5V601.5H181.568V473.418V472.918H181.068Z" stroke="#D8D0CF" stroke-opacity="0.2"/>
<path d="M380.5 504C380.5 512.591 373.978 519.5 366 519.5C358.022 519.5 351.5 512.591 351.5 504C351.5 495.409 358.022 488.5 366 488.5C373.978 488.5 380.5 495.409 380.5 504Z" stroke="#D8D0CF" stroke-opacity="0.2"/>
<path d="M368.497 358.459V487.5H364.5V353.5H439.5V357.959H368.997H368.497V358.459Z" stroke="#D8D0CF" stroke-opacity="0.2"/>
</svg>
