<svg width="268" height="699" viewBox="0 0 268 699" fill="none" xmlns="http://www.w3.org/2000/svg">
<path d="M18.9364 399.056V473.911L29.0131 519.976C29.0131 519.976 27.5736 548.767 29.0131 557.404C30.4526 566.041 27.5736 580.436 18.9364 580.436C10.2993 580.436 5.98071 602.029 5.98071 602.029C5.98071 602.029 3.10167 610.666 -4.09595 612.106C-11.2936 613.545 -11.2936 612.106 -11.2936 612.106L-17.0517 626.501L-136.532 705.675L-113.5 763.256C-113.5 763.256 -77.5117 750.3 -74.6326 745.982C-71.7536 741.663 -47.2817 751.74 -47.2817 741.663C-47.2817 731.586 -42.9631 705.675 -34.326 704.235C-25.6888 702.796 46.2874 669.687 46.2874 669.687C46.2874 669.687 83.715 627.941 86.5941 612.106C89.4731 596.271 102.429 551.646 102.429 551.646L138.417 612.106V733.026L132.659 797.804L195.998 789.167C195.998 789.167 190.24 748.861 195.998 743.102C201.756 737.344 210.393 668.247 204.635 659.61C198.877 650.973 207.514 612.106 204.635 606.348C201.756 600.59 203.196 558.843 195.998 547.327C188.8 535.811 145.615 417.77 145.615 417.77L18.9364 399.056Z" fill="#E5E5E5"/>
<path d="M159.29 160.815L205.355 54.2904C205.355 54.2904 201.036 44.2137 190.96 45.6532C190.96 45.6532 177.284 10.3849 151.373 10.3849C151.373 10.3849 112.506 -11.2079 100.989 10.3849C100.989 10.3849 76.5174 31.9778 77.9569 52.1311C79.3965 72.2844 80.836 86.6797 80.836 86.6797C80.836 86.6797 57.8036 89.5587 62.1222 101.075C66.4408 112.591 67.8803 112.591 62.1222 116.91L56.3641 121.228C56.3641 121.228 -63.1164 229.193 3.10171 387.54L8.85981 412.012V435.044C8.85981 435.044 154.252 436.484 154.252 435.044C154.252 433.605 151.373 424.968 157.131 419.21C162.889 413.452 162.889 404.814 162.889 404.814C162.889 404.814 157.131 376.024 160.01 367.387C162.889 358.75 164.328 321.322 158.57 312.685C152.812 304.048 155.691 234.951 155.691 234.951L168.647 210.479L164.328 196.083L160.01 181.688L159.29 160.815Z" fill="#8F1D14"/>
<path opacity="0.1" d="M147.054 449.44C147.054 449.44 129.78 401.935 131.219 393.298C132.659 384.661 128.34 367.387 128.34 367.387L122.582 250.785C122.582 250.785 147.054 147.14 92.3522 129.865C92.3522 129.865 78.5105 135.905 67.1693 155.341C55.9543 160.336 42.3456 172.978 39.0898 204.721C33.3317 260.862 59.2431 404.814 72.1988 429.286C85.1545 453.758 93.7917 471.032 93.7917 471.032L107.333 465.014C107.892 466.123 108.187 466.714 108.187 466.714L147.054 449.44Z" fill="black"/>
<path d="M154.971 147.859C157.356 147.859 159.29 145.926 159.29 143.541C159.29 141.156 157.356 139.222 154.971 139.222C152.586 139.222 150.653 141.156 150.653 143.541C150.653 145.926 152.586 147.859 154.971 147.859Z" fill="#F2F2F2"/>
<path d="M103.149 454.478L114.665 478.95C114.665 478.95 140.576 470.313 140.576 465.994C140.576 461.676 129.06 442.962 129.06 442.962L103.149 454.478Z" fill="#FFB8B8"/>
<path d="M86.5941 129.865C86.5941 129.865 53.485 144.261 47.7269 200.402C41.9688 256.544 67.8802 400.496 80.836 424.968C93.7917 449.44 102.429 466.714 102.429 466.714L141.296 449.44C141.296 449.44 124.022 401.935 125.461 393.298C126.901 384.661 122.582 367.387 122.582 367.387L116.824 250.785C116.824 250.785 141.296 147.14 86.5941 129.865Z" fill="#8F1D14"/>
</svg>
