<svg width="1048" height="1024" viewBox="0 0 1048 1024" fill="none" xmlns="http://www.w3.org/2000/svg">
<path d="M543 920H503V1024H543V920Z" fill="#68150F"/>
<path d="M941.744 207.72L849.52 258.746L868.94 293.715L961.164 242.689L941.744 207.72Z" fill="#68150F"/>
<path d="M872.165 723.585L850.94 757.489L937.913 811.735L959.138 777.831L872.165 723.585Z" fill="#8F1D14" fill-opacity="0.73"/>
<path d="M930 530H1048V490H930V530Z" fill="#68150F"/>
<g filter="url(#filter0_d)">
<path d="M516 174.585C582.934 174.585 648.365 194.198 704.019 230.944C759.672 267.69 803.049 319.918 828.664 381.025C854.278 442.131 860.981 509.371 847.922 574.241C834.864 639.111 802.632 698.698 755.303 745.467C707.973 792.236 647.672 824.086 582.024 836.989C516.376 849.893 448.33 843.27 386.491 817.959C324.652 792.648 271.797 749.785 234.611 694.791C197.424 639.797 177.576 575.141 177.576 509C177.576 420.308 213.231 335.248 276.698 272.533C340.165 209.818 426.244 174.585 516 174.585ZM516 92C432.536 92 350.947 116.457 281.549 162.277C212.152 208.098 158.063 273.224 126.123 349.421C94.183 425.618 85.8258 509.462 102.109 590.353C118.392 671.243 158.583 745.545 217.601 803.863C276.619 862.182 351.812 901.897 433.672 917.987C515.532 934.077 600.382 925.819 677.492 894.258C754.603 862.696 820.51 809.248 866.88 740.673C913.25 672.098 938 591.475 938 509C937.874 398.443 893.372 292.45 814.259 214.275C735.147 136.099 627.883 92.125 516 92Z" fill="#68150F"/>
<path d="M704.294 230.527C648.558 193.727 583.032 174.085 516 174.085C426.114 174.085 339.907 209.369 276.346 272.177C212.785 334.986 177.076 420.173 177.076 509C177.076 575.241 196.954 639.994 234.197 695.071C271.439 750.148 324.372 793.074 386.302 818.422C448.231 843.77 516.377 850.402 582.12 837.48C647.864 824.557 708.254 792.661 755.654 745.822C803.054 698.984 835.335 639.308 848.413 574.339C861.49 509.371 854.778 442.03 829.125 380.831C803.472 319.633 760.03 267.327 704.294 230.527ZM281.825 162.694C351.14 116.928 432.634 92.5001 516 92.5C627.752 92.6249 734.889 136.548 813.908 214.63C892.927 292.713 937.374 398.578 937.5 509C937.5 591.375 912.78 671.9 866.466 740.393C820.152 808.886 754.323 862.27 677.303 893.795C600.283 925.32 515.532 933.568 433.768 917.497C352.004 901.425 276.9 861.757 217.953 803.508C159.005 745.259 118.862 671.046 102.599 590.254C86.3357 509.462 94.6827 425.719 126.584 349.614C158.486 273.51 212.51 208.461 281.825 162.694Z" stroke="#8F1D14"/>
</g>
<path d="M543 0H503V102H543V0Z" fill="#68150F"/>
<path d="M732.688 41.4728L679.867 129.217L714.171 149.791L766.991 62.0461L732.688 41.4728Z" fill="#68150F"/>
<path d="M78.0465 259.203L58.6265 294.172L148.325 343.8L167.745 308.831L78.0465 259.203Z" fill="#68150F"/>
<path d="M142.508 675.019L55.5352 729.264L76.7604 763.169L163.733 708.923L142.508 675.019Z" fill="#68150F"/>
<path d="M264.181 70.9854L229.877 91.5587L282.698 179.303L317.002 158.73L264.181 70.9854Z" fill="#68150F"/>
<path d="M714.185 873.862L679.881 894.436L732.702 982.18L767.006 961.607L714.185 873.862Z" fill="#68150F"/>
<path d="M282.698 844.355L229.877 932.099L264.181 952.673L317.002 864.928L282.698 844.355Z" fill="#68150F"/>
<path d="M118 470H0V510H118V470Z" fill="#68150F"/>
<defs>
<filter id="filter0_d" x="94" y="92" width="853" height="842" filterUnits="userSpaceOnUse" color-interpolation-filters="sRGB">
<feFlood flood-opacity="0" result="BackgroundImageFix"/>
<feColorMatrix in="SourceAlpha" type="matrix" values="0 0 0 0 0 0 0 0 0 0 0 0 0 0 0 0 0 0 127 0"/>
<feOffset dx="5" dy="4"/>
<feGaussianBlur stdDeviation="2"/>
<feColorMatrix type="matrix" values="0 0 0 0 0.407843 0 0 0 0 0.0823529 0 0 0 0 0.0588235 0 0 0 1 0"/>
<feBlend mode="normal" in2="BackgroundImageFix" result="effect1_dropShadow"/>
<feBlend mode="normal" in="SourceGraphic" in2="effect1_dropShadow" result="shape"/>
</filter>
</defs>
</svg>
