<?xml version="1.0" encoding="UTF-8"?>
<svg xmlns="http://www.w3.org/2000/svg" xmlns:xlink="http://www.w3.org/1999/xlink" width="755pt" height="528pt" viewBox="0 0 755 528" version="1.1">
<g id="surface1">
<path style=" stroke:none;fill-rule:nonzero;fill:rgb(7.843137%,7.843137%,7.843137%);fill-opacity:1;" d="M 736.511719 527.980469 L 19.625 527.980469 C 14.730469 527.972656 10.035156 525.859375 6.582031 522.097656 C 3.117188 518.339844 1.171875 513.246094 1.164062 507.933594 L 1.164062 27.8125 C 1.171875 23.921875 2.59375 20.191406 5.128906 17.433594 C 7.667969 14.679688 11.101562 13.132812 14.691406 13.125 L 741.210938 13.125 C 744.859375 13.132812 748.355469 14.707031 750.929688 17.511719 C 753.507812 20.3125 754.960938 24.109375 754.964844 28.070312 L 754.964844 507.933594 C 754.960938 513.246094 753.011719 518.339844 749.550781 522.097656 C 746.09375 525.859375 741.398438 527.972656 736.511719 527.980469 Z M 736.511719 527.980469 "/>
<path style=" stroke:none;fill-rule:nonzero;fill:rgb(56.078431%,11.372549%,7.843137%);fill-opacity:1;" d="M 754.710938 30.3125 L 0.90625 30.3125 L 0.90625 20.105469 C 0.914062 14.777344 2.871094 9.664062 6.339844 5.890625 C 9.8125 2.125 14.523438 0.0078125 19.429688 0 L 736.183594 0 C 741.09375 0.0078125 745.800781 2.125 749.273438 5.890625 C 752.746094 9.664062 754.699219 14.777344 754.710938 20.105469 Z M 754.710938 30.3125 "/>
<path style=" stroke:none;fill-rule:nonzero;fill:rgb(7.843137%,7.843137%,7.843137%);fill-opacity:1;" d="M 34.574219 20.390625 C 37.21875 20.390625 39.367188 18.066406 39.367188 15.1875 C 39.367188 12.3125 37.21875 9.984375 34.574219 9.984375 C 31.925781 9.984375 29.78125 12.3125 29.78125 15.1875 C 29.78125 18.066406 31.925781 20.390625 34.574219 20.390625 Z M 34.574219 20.390625 "/>
<path style=" stroke:none;fill-rule:nonzero;fill:rgb(7.843137%,7.843137%,7.843137%);fill-opacity:1;" d="M 52.761719 20.390625 C 55.40625 20.390625 57.554688 18.066406 57.554688 15.1875 C 57.554688 12.3125 55.40625 9.984375 52.761719 9.984375 C 50.117188 9.984375 47.96875 12.3125 47.96875 15.1875 C 47.96875 18.066406 50.117188 20.390625 52.761719 20.390625 Z M 52.761719 20.390625 "/>
<path style=" stroke:none;fill-rule:nonzero;fill:rgb(7.843137%,7.843137%,7.843137%);fill-opacity:1;" d="M 70.949219 20.390625 C 73.59375 20.390625 75.738281 18.066406 75.738281 15.1875 C 75.738281 12.3125 73.59375 9.984375 70.949219 9.984375 C 68.304688 9.984375 66.160156 12.3125 66.160156 15.1875 C 66.160156 18.066406 68.304688 20.390625 70.949219 20.390625 Z M 70.949219 20.390625 "/>
</g>
</svg>
