<?xml version="1.0" encoding="UTF-8"?>
<svg xmlns="http://www.w3.org/2000/svg" xmlns:xlink="http://www.w3.org/1999/xlink" width="700pt" height="700pt" viewBox="0 0 700 700" version="1.1">
<g id="surface1">
<path style=" stroke:none;fill-rule:nonzero;fill:rgb(7.843137%,7.843137%,7.843137%);fill-opacity:1;" d="M 682.859375 699.972656 L 18.195312 699.972656 C 13.65625 699.964844 9.304688 697.160156 6.101562 692.175781 C 2.890625 687.195312 1.085938 680.4375 1.078125 673.394531 L 1.078125 36.875 C 1.085938 31.714844 2.40625 26.769531 4.753906 23.113281 C 7.109375 19.460938 10.292969 17.410156 13.621094 17.402344 L 687.214844 17.402344 C 690.597656 17.410156 693.839844 19.5 696.226562 23.214844 C 698.617188 26.929688 699.964844 31.960938 699.96875 37.214844 L 699.96875 673.394531 C 699.964844 680.4375 698.15625 687.195312 694.949219 692.175781 C 691.742188 697.160156 687.390625 699.964844 682.859375 699.972656 Z M 682.859375 699.972656 "/>
<path style=" stroke:none;fill-rule:nonzero;fill:rgb(56.078431%,11.372549%,7.843137%);fill-opacity:1;" d="M 699.730469 40.1875 L 0.839844 40.1875 L 0.839844 26.65625 C 0.847656 19.589844 2.660156 12.8125 5.878906 7.808594 C 9.097656 2.816406 13.464844 0.0078125 18.015625 0 L 682.554688 0 C 687.105469 0.0078125 691.472656 2.816406 694.691406 7.808594 C 697.910156 12.8125 699.722656 19.589844 699.730469 26.65625 Z M 699.730469 40.1875 "/>
<path style=" stroke:none;fill-rule:nonzero;fill:rgb(7.843137%,7.843137%,7.843137%);fill-opacity:1;" d="M 32.054688 27.035156 C 34.507812 27.035156 36.5 23.949219 36.5 20.136719 C 36.5 16.324219 34.507812 13.234375 32.054688 13.234375 C 29.601562 13.234375 27.613281 16.324219 27.613281 20.136719 C 27.613281 23.949219 29.601562 27.035156 32.054688 27.035156 Z M 32.054688 27.035156 "/>
<path style=" stroke:none;fill-rule:nonzero;fill:rgb(7.843137%,7.843137%,7.843137%);fill-opacity:1;" d="M 48.917969 27.035156 C 51.371094 27.035156 53.363281 23.949219 53.363281 20.136719 C 53.363281 16.324219 51.371094 13.234375 48.917969 13.234375 C 46.464844 13.234375 44.472656 16.324219 44.472656 20.136719 C 44.472656 23.949219 46.464844 27.035156 48.917969 27.035156 Z M 48.917969 27.035156 "/>
<path style=" stroke:none;fill-rule:nonzero;fill:rgb(7.843137%,7.843137%,7.843137%);fill-opacity:1;" d="M 65.78125 27.035156 C 68.234375 27.035156 70.222656 23.949219 70.222656 20.136719 C 70.222656 16.324219 68.234375 13.234375 65.78125 13.234375 C 63.328125 13.234375 61.339844 16.324219 61.339844 20.136719 C 61.339844 23.949219 63.328125 27.035156 65.78125 27.035156 Z M 65.78125 27.035156 "/>
</g>
</svg>
